# xmcd
#
# Track frame offsets:
#	150
#	17483
#	36854
#	54870
#	72161
#	83596
#	99769
#	115616
#	138081
#	150266
#	163777
#	176620
#	188501
#	204366
#	220708
#
# Disc length: 3077 seconds
#
# Revision: 0
# Processed by: cddbd v1.5.2PL0 Copyright (c) Steve Scherf et al.
# Submitted via: audiograbber 1.83.01
#
DISCID=a70c030f
DTITLE=—борник - Love Songs - The Romantic Essentials CD1
DYEAR=1900
DGENRE=
TTITLE0=Air Supply - All Out Of Love
TTITLE1=Berlin - Take My Breath Away
TTITLE2=Randy VanWarner - Just When I Needed You Most
TTITLE3=Bee Gees and Samantha Sang - Emotion
TTITLE4=Charles Aznavour - She
TTITLE5=The Righteous Brothers - Unchained Melody
TTITLE6=The Carpenters - Desperado
TTITLE7=Kim Carnes - To Love Somebody
TTITLE8=Dionne Warwick - Walk On By Me
TTITLE9=Aaron Nelville - Tell It Like It Is
TTITLE10=Percy Sledge - When A Man Loves A Woman
TTITLE11=Tom Jones - All By Myself
TTITLE12=Harold Melvin - If You Dont Know Me By Now
TTITLE13=Ray Charles - Georgia On My Mind
TTITLE14=Louis Armstrong - What A Wonderful World
EXTD=
EXTT0=
EXTT1=
EXTT2=
EXTT3=
EXTT4=
EXTT5=
EXTT6=
EXTT7=
EXTT8=
EXTT9=
EXTT10=
EXTT11=
EXTT12=
EXTT13=
EXTT14=
PLAYORDER=
